<svg xmlns="http://www.w3.org/2000/svg" viewBox="0 0 160 76">
  <defs>
    <style>
      .cls-1, .cls-26 {
        fill: #fff;
      }

      .cls-19, .cls-2, .cls-28, .cls-3, .cls-5, .cls-6 {
        fill: none;
      }

      .cls-2, .cls-3, .cls-5 {
        stroke: #ee3241;
      }

      .cls-19, .cls-2, .cls-26, .cls-28, .cls-3, .cls-5, .cls-6 {
        stroke-miterlimit: 10;
      }

      .cls-19, .cls-2, .cls-28, .cls-3, .cls-5 {
        stroke-width: 0.5px;
      }

      .cls-3 {
        stroke-dasharray: 0.97 0.97;
      }

      .cls-4 {
        fill: #ee3241;
      }

      .cls-5 {
        stroke-dasharray: 0.98 0.98;
      }

      .cls-19, .cls-26, .cls-28, .cls-6 {
        stroke: #464647;
      }

      .cls-7 {
        font-size: 4px;
        font-family: ABBvoice-Regular, ABBvoice;
      }

      .cls-20, .cls-7, .cls-8 {
        fill: #464647;
      }

      .cls-8 {
        font-size: 3px;
        font-family: ABBvoice-Light, ABBvoice;
        font-weight: 300;
      }

      .cls-9 {
        letter-spacing: -0.02em;
      }

      .cls-10 {
        letter-spacing: -0.06em;
      }

      .cls-11 {
        letter-spacing: 0.01em;
      }

      .cls-12 {
        letter-spacing: -0.01em;
      }

      .cls-13 {
        letter-spacing: 0.05em;
      }

      .cls-14 {
        letter-spacing: 0.01em;
      }

      .cls-15 {
        letter-spacing: -0.02em;
      }

      .cls-16 {
        letter-spacing: 0.02em;
      }

      .cls-17 {
        letter-spacing: -0.01em;
      }

      .cls-18 {
        letter-spacing: 0em;
      }

      .cls-21 {
        letter-spacing: 0em;
      }

      .cls-22 {
        letter-spacing: -0.01em;
      }

      .cls-23 {
        letter-spacing: 0.02em;
      }

      .cls-24 {
        letter-spacing: -0.02em;
      }

      .cls-25 {
        letter-spacing: 0em;
      }

      .cls-27 {
        letter-spacing: -0.02em;
      }

      .cls-28 {
        stroke-dasharray: 1 1;
      }
    </style>
  </defs>
  <title>regrafxApplication-4</title>
  <g id="Layer_2" data-name="Layer 2">
    <g id="Apps">
      <g>
        <rect class="cls-1" width="160" height="76"/>
        <rect class="cls-1" x="18" y="8" width="60" height="6"/>
        <g>
          <path class="cls-2" d="M52,37.84s.18,0,.48-.14"/>
          <path class="cls-3" d="M53.39,37.37a9.95,9.95,0,0,0,1.52-18"/>
          <path class="cls-2" d="M54.49,19.07l-.44-.23"/>
          <polygon class="cls-4" points="54.78 18.39 52 18 54.21 19.73 54.78 18.39"/>
        </g>
        <g>
          <line class="cls-2" x1="54.21" y1="18" x2="54.71" y2="18"/>
          <path class="cls-5" d="M55.7,18H76s8,2.16,8,10c0,6.29-5,8.77-7.06,9.54"/>
          <path class="cls-2" d="M76.48,37.7c-.3.1-.48.14-.48.14"/>
          <polygon class="cls-4" points="54.71 18.73 52 18 54.71 17.27 54.71 18.73"/>
        </g>
        <circle class="cls-6" cx="48" cy="18" r="4"/>
        <text class="cls-7" transform="translate(46.56 19.17)">D</text>
        <text class="cls-8" transform="translate(20.93 12)">on er<tspan class="cls-9" x="7.09" y="0">r</tspan><tspan x="8.17" y="0">o</tspan><tspan class="cls-10" x="9.99" y="0">r</tspan><tspan x="10.95" y="0">, a</tspan><tspan class="cls-11" x="14.05" y="0">f</tspan><tspan class="cls-12" x="15.2" y="0">t</tspan><tspan x="16.35" y="0">er a</tspan><tspan class="cls-11" x="21.5" y="0">f</tspan><tspan class="cls-12" x="22.64" y="0">t</tspan><tspan x="23.79" y="0">er </tspan><tspan class="cls-13" x="27.29" y="0">{</tspan><tspan class="cls-14" x="28.42" y="0">y</tspan><tspan x="29.87" y="0">} s, </tspan><tspan class="cls-15" x="34.55" y="0">r</tspan><tspan x="35.63" y="0">et</tspan><tspan class="cls-16" x="38.45" y="0">r</tspan><tspan x="39.67" y="0">y {n} </tspan><tspan class="cls-17" x="46.25" y="0">t</tspan><tspan class="cls-18" x="47.41" y="0">imes</tspan></text>
        <text class="cls-8" transform="translate(47.16 26)">5</text>
        <g>
          <path class="cls-19" d="M41.91,37.1A9.66,9.66,0,0,1,36,28c0-7.84,8-10,8-10"/>
          <polygon class="cls-20" points="41.71 36.21 44 37.84 41.21 37.57 41.71 36.21"/>
        </g>
        <g>
          <path class="cls-19" d="M44,58s-8-2-8-10a10,10,0,0,1,5.94-9.19"/>
          <polygon class="cls-20" points="41.77 39.7 44 38 41.22 38.35 41.77 39.7"/>
        </g>
        <rect class="cls-1" x="18" y="48" width="60" height="6"/>
        <circle class="cls-6" cx="48" cy="58" r="4"/>
        <text class="cls-7" transform="translate(46.56 59.17)">D</text>
        <text class="cls-8" transform="translate(31.44 52)"><tspan class="cls-9">r</tspan><tspan class="cls-21" x="1.08" y="0">epe</tspan><tspan class="cls-22" x="6.24" y="0">a</tspan><tspan x="7.86" y="0">t a</tspan><tspan class="cls-11" x="11.41" y="0">f</tspan><tspan class="cls-12" x="12.55" y="0">t</tspan><tspan x="13.7" y="0">er </tspan><tspan class="cls-23" x="17.2" y="0">{x</tspan><tspan x="19.78" y="0">} se</tspan><tspan class="cls-24" x="24.64" y="0">c</tspan><tspan class="cls-25" x="26.11" y="0">onds</tspan></text>
        <g>
          <path class="cls-19" d="M54.21,58H100s8-2.16,8-10c0-8.16-8-9.84-8-9.84"/>
          <polygon class="cls-20" points="54.71 58.73 52 58 54.71 57.27 54.71 58.73"/>
        </g>
        <text class="cls-8" transform="translate(47.12 66)">4</text>
        <rect class="cls-26" x="116" y="34" width="8" height="8"/>
        <text class="cls-8" transform="translate(106.21 32)">subsc<tspan class="cls-14" x="8.21" y="0">r</tspan><tspan class="cls-21" x="9.38" y="0">iber: log msg</tspan></text>
        <circle class="cls-6" cx="96" cy="38" r="4"/>
        <text class="cls-8" transform="translate(92.92 32)">map</text>
        <g>
          <line class="cls-19" x1="100" y1="38" x2="113.79" y2="38"/>
          <polygon class="cls-20" points="113.29 38.73 116 38 113.29 37.27 113.29 38.73"/>
        </g>
        <text class="cls-7" transform="translate(94.8 39.17)">=</text>
        <text class="cls-8" transform="translate(95.26 46)">3</text>
        <g>
          <line class="cls-19" x1="76" y1="38" x2="89.79" y2="38"/>
          <polygon class="cls-20" points="89.29 38.73 92 38 89.29 37.27 89.29 38.73"/>
        </g>
        <text class="cls-8" transform="translate(69.05 32)">json</text>
        <circle class="cls-6" cx="72" cy="38" r="4"/>
        <text class="cls-7" transform="translate(70.8 39.17)">=</text>
        <text class="cls-8" transform="translate(71.21 46)">2</text>
        <g>
          <line class="cls-19" x1="52" y1="38" x2="65.79" y2="38"/>
          <polygon class="cls-20" points="65.29 38.73 68 38 65.29 37.27 65.29 38.73"/>
        </g>
        <circle class="cls-6" cx="48" cy="38" r="4"/>
        <text class="cls-8" transform="translate(44.44 32)"><tspan class="cls-27">f</tspan><tspan class="cls-21" x="1.05" y="0">e</tspan><tspan class="cls-12" x="2.69" y="0">t</tspan><tspan x="3.84" y="0">ch</tspan></text>
        <text class="cls-7" transform="translate(46.8 39.17)">=</text>
        <text class="cls-8" transform="translate(47.36 46)">1</text>
        <rect class="cls-1" x="18" y="28.12" width="16" height="6"/>
        <g>
          <line class="cls-28" x1="28" y1="38" x2="41.79" y2="38"/>
          <polygon class="cls-20" points="41.29 38.73 44 38 41.29 37.27 41.29 38.73"/>
        </g>
        <circle class="cls-6" cx="26" cy="38" r="2"/>
        <text class="cls-8" transform="translate(21.16 32)">t<tspan class="cls-14" x="1.18" y="0">r</tspan><tspan class="cls-21" x="2.35" y="0">igger</tspan></text>
      </g>
    </g>
  </g>
</svg>
