<svg xmlns="http://www.w3.org/2000/svg" xmlns:xlink="http://www.w3.org/1999/xlink" viewBox="0 0 160 104">
  <defs>
    <style>
      .cls-1, .cls-11, .cls-3, .cls-7, .cls-9 {
        fill: none;
      }

      .cls-2 {
        fill: #fff;
      }

      .cls-11, .cls-3 {
        stroke: #464647;
      }

      .cls-11, .cls-3, .cls-7, .cls-9 {
        stroke-miterlimit: 10;
        stroke-width: 2px;
      }

      .cls-4 {
        clip-path: url(#clip-path);
      }

      .cls-5 {
        fill: #474747;
      }

      .cls-6 {
        clip-path: url(#clip-path-3);
      }

      .cls-7 {
        stroke: #ee3241;
      }

      .cls-11, .cls-7, .cls-9 {
        stroke-linecap: round;
      }

      .cls-8 {
        fill: #ee3241;
      }

      .cls-9 {
        stroke: #d2d2d2;
      }

      .cls-10 {
        fill: #d2d2d2;
      }

      .cls-12 {
        fill: #464647;
      }

      .cls-13 {
        clip-path: url(#clip-path-4);
      }
    </style>
    <clipPath id="clip-path">
      <rect class="cls-1" x="20" y="48" width="16" height="16"/>
    </clipPath>
    <clipPath id="clip-path-3">
      <rect class="cls-1" x="124" y="48" width="16" height="16"/>
    </clipPath>
    <clipPath id="clip-path-4">
      <rect class="cls-1" x="72" y="12" width="16" height="16"/>
    </clipPath>
  </defs>
  <title>regrafxNode</title>
  <g id="Layer_2" data-name="Layer 2">
    <g id="Layer_2-2" data-name="Layer 2">
      <g>
        <rect class="cls-2" width="160" height="104"/>
        <circle class="cls-3" cx="80" cy="56" r="16"/>
        <g id="UI_View_16">
          <g class="cls-4">
            <g class="cls-4">
              <path class="cls-5" d="M28,58a2,2,0,1,1,2-2,2,2,0,0,1-2,2m0,1.33c-2.85,0-5.09-3-5.19-3.13l-.14-.2.14-.2c.1-.13,2.34-3.13,5.19-3.13s5.09,3,5.19,3.13l.14.2-.14.2c-.1.13-2.34,3.13-5.19,3.13M23.51,56c.53.67,2.37,2.67,4.49,2.67s4-2,4.49-2.67c-.53-.67-2.37-2.67-4.49-2.67s-4,2-4.49,2.67"/>
            </g>
          </g>
        </g>
        <g id="UI_Evelope_16">
          <g class="cls-6">
            <path class="cls-5" d="M132,56.74l-5.24-4.07h10.48Zm-2.35-.67-3-2.3v5.56Zm4,.58L132,57.93l-1.61-1.26-3.65,4h10.52Zm.74-.58,2.94,3.26V53.77Z"/>
          </g>
        </g>
        <g>
          <path class="cls-7" d="M113.93,40H112c-12,0-16,8-16,8s-4,8-16,8"/>
          <rect class="cls-8" x="111.64" y="37.82" width="4.36" height="4.36"/>
        </g>
        <g>
          <path class="cls-9" d="M113.33,72H112c-12,0-16-8-16-8s-4-8-16-8"/>
          <g>
            <circle class="cls-2" cx="113.19" cy="72" r="2.48" transform="translate(3.35 149.02) rotate(-67.5)"/>
            <path class="cls-10" d="M113.19,69.19A2.81,2.81,0,1,0,116,72a2.81,2.81,0,0,0-2.81-2.81Zm0,5A2.15,2.15,0,1,1,115.34,72a2.15,2.15,0,0,1-2.15,2.15Z"/>
          </g>
        </g>
        <g>
          <polyline class="cls-11" points="113.64 56 112 56 80 56"/>
          <circle class="cls-12" cx="113.52" cy="56" r="2.48" transform="translate(18.34 139.45) rotate(-67.5)"/>
        </g>
        <g>
          <line class="cls-11" x1="48.93" y1="56" x2="80" y2="56"/>
          <polygon class="cls-12" points="44 59.29 49.52 56 44 52.71 44 59.29"/>
        </g>
        <circle class="cls-12" cx="80" cy="56" r="4"/>
        <g id="UI_TimeAndDate_16">
          <g class="cls-13">
            <g class="cls-13">
              <path class="cls-5" d="M81.67,18.6a3.07,3.07,0,1,1-3.07,3.07,3.06,3.06,0,0,1,3.07-3.07m0-.6a3.67,3.67,0,1,0,3.66,3.67A3.67,3.67,0,0,0,81.67,18"/>
              <polygon class="cls-5" points="81.67 22.45 79.89 20.39 80.45 19.89 81.77 21.42 82.76 20.65 83.22 21.24 81.67 22.45"/>
              <path class="cls-5" d="M78,24H75.33V18h4A4.31,4.31,0,0,1,84,18V15.33H82.67v-.66h-2v.66H78v-.66H76v.66H74.67v9.34h3.88A4.35,4.35,0,0,1,78,24m3.33-8.67H82v1.34h-.67Zm-4.66,0h.66v1.34h-.66Z"/>
              <path class="cls-5" d="M78,19.37v0H76.67v1.34h.78a4.39,4.39,0,0,1,.55-1.3"/>
              <path class="cls-5" d="M77.33,21.67v-.34h-.66v1.34h.78a4.27,4.27,0,0,1-.12-1"/>
            </g>
          </g>
        </g>
      </g>
    </g>
  </g>
</svg>
