<svg xmlns="http://www.w3.org/2000/svg" viewBox="0 0 160 32">
  <defs>
    <style>
      .cls-1, .cls-2 {
        fill: #fff;
      }

      .cls-12, .cls-2, .cls-6, .cls-8 {
        stroke: #464647;
        stroke-miterlimit: 10;
      }

      .cls-3 {
        font-size: 3px;
        font-family: ABBvoice-Light, ABBvoice;
        font-weight: 300;
      }

      .cls-3, .cls-7, .cls-9 {
        fill: #464647;
      }

      .cls-4 {
        letter-spacing: 0.01em;
      }

      .cls-5 {
        letter-spacing: 0em;
      }

      .cls-12, .cls-6, .cls-8 {
        fill: none;
      }

      .cls-12, .cls-6 {
        stroke-width: 0.5px;
      }

      .cls-9 {
        font-size: 4px;
        font-family: ABBvoice-Regular, ABBvoice;
      }

      .cls-10 {
        letter-spacing: -0.02em;
      }

      .cls-11 {
        letter-spacing: -0.01em;
      }

      .cls-12 {
        stroke-dasharray: 1 1;
      }
    </style>
  </defs>
  <title>regrafxApplication-1</title>
  <g id="Layer_2" data-name="Layer 2">
    <g id="Apps">
      <g>
        <rect class="cls-1" width="160" height="32"/>
        <rect class="cls-2" x="92" y="10" width="8" height="8"/>
        <text class="cls-3" transform="translate(82.21 8)">subsc<tspan class="cls-4" x="8.21" y="0">r</tspan><tspan class="cls-5" x="9.38" y="0">iber: log msg</tspan></text>
        <g>
          <line class="cls-6" x1="76" y1="14" x2="89.79" y2="14"/>
          <polygon class="cls-7" points="89.29 14.73 92 14 89.29 13.27 89.29 14.73"/>
        </g>
        <text class="cls-3" transform="translate(69.05 8)">json</text>
        <circle class="cls-8" cx="72" cy="14" r="4"/>
        <text class="cls-9" transform="translate(70.8 15.17)">=</text>
        <text class="cls-3" transform="translate(71.21 22)">2</text>
        <g>
          <line class="cls-6" x1="52" y1="14" x2="65.79" y2="14"/>
          <polygon class="cls-7" points="65.29 14.73 68 14 65.29 13.27 65.29 14.73"/>
        </g>
        <circle class="cls-8" cx="48" cy="14" r="4"/>
        <text class="cls-3" transform="translate(44.44 8)"><tspan class="cls-10">f</tspan><tspan class="cls-5" x="1.05" y="0">e</tspan><tspan class="cls-11" x="2.69" y="0">t</tspan><tspan x="3.84" y="0">ch</tspan></text>
        <text class="cls-9" transform="translate(46.8 15.17)">=</text>
        <text class="cls-3" transform="translate(47.36 22)">1</text>
        <rect class="cls-1" x="18" y="4.12" width="16" height="6"/>
        <g>
          <line class="cls-12" x1="28" y1="14" x2="41.79" y2="14"/>
          <polygon class="cls-7" points="41.29 14.73 44 14 41.29 13.27 41.29 14.73"/>
        </g>
        <circle class="cls-8" cx="26" cy="14" r="2"/>
        <text class="cls-3" transform="translate(21.16 8)">t<tspan class="cls-4" x="1.18" y="0">r</tspan><tspan class="cls-5" x="2.35" y="0">igger</tspan></text>
      </g>
    </g>
  </g>
</svg>
